{"title":"Mother's Day 2016  HDCAM x264 AAC-Exclusive","uid":14750953,"size":1739262872,"categoryP":"video","categoryS":"movies","magnet":"?xt=urn:btih:ecfcb70323c1b1dea12181cc93adde14dfb4c6a6&amp;dn=Mother%27s+Day+2016++HDCAM+x264+AAC-Exclusive&amp;tr=udp%3A%2F%2Ftracker.leechers-paradise.org%3A6969&amp;tr=udp%3A%2F%2Fzer0day.ch%3A1337&amp;tr=udp%3A%2F%2Fopen.demonii.com%3A1337&amp;tr=udp%3A%2F%2Ftracker.coppersurfer.tk%3A6969&amp;tr=udp%3A%2F%2Fexodus.desync.com%3A6969","seeders":32,"leechers":7,"uploader":"xxxlavalxxx","files":3,"time":1464759382,"description":"http://extraimago.com/image/aKpb\r\n \nhttp://www.imdb.com/title/tt4824302/\r\n\r\n\r\nThree generations come together in the week leading up to Mother's Day.\r\n\r\nDirector: Garry Marshall\r\nWriters: Anya Kochoff (screenplay) (as Anya Kochoff Romano), Matthew Walker (screenplay) (as Matt Walker)\r\nStars: Jennifer Aniston, Kate Hudson, Julia Roberts \r\nGenres: Comedy | Drama\r\nCountry: USA\r\nLanguage: English\r\n\r\n\r\nSource: FOM\r\nSample: added\r\nEncoder: CPG\r\n\r\nNote: fix colors, bright, rgb, contrast, a bit blury though\r\n\r\nFormat                         : Matroska\r\nFile size                      : 1.61 GiB\r\nDuration                       : 1h 53mn\r\nOverall bit rate               : 2 017 Kbps\r\n\r\nVideo\r\nID                             : 1\r\nFormat                         : AVC\r\nFormat/Info                    : Advanced Video Codec\r\nFormat profile                 :   \r\nFormat settings, CABAC         : Yes\r\nFormat settings, ReFrames      : 3 frames\r\nCodec ID                       : V_MPEG4/ISO/AVC\r\nDuration                       : 1h 53mn\r\nBit rate                       : 1 900 Kbps\r\nWidth                          : 720 pixels\r\nHeight                         : 336 pixels\r\nDisplay aspect ratio           : 2.143\r\nFrame rate mode                : Constant\r\nFrame rate                     : 29.970 (30000/1001) fps\r\nColor space                    : YUV\r\nChroma subsampling             : 4:2:0\r\nBit depth                      : 8 bits\r\nScan type                      : Progressive\r\nBits/(Pixel*Frame)             : 0.262\r\nStream size                    : 1.50 GiB (93%)\r\n\r\nAudio\r\nID                             : 2\r\nFormat                         : AAC\r\nFormat/Info                    : Advanced Audio Codec\r\nFormat profile                 : LC\r\nCodec ID                       : A_AAC\r\nDuration                       : 1h 53mn\r\nBit rate                       : 128 Kbps\r\nChannel(s)                     : 2 channels\r\nChannel positions              : Front: L R\r\nSampling rate                  : 48.0 KHz\r\nFrame rate                     : 46.875 fps (1024 spf)\r\nCompression mode               : Lossy\r\nStream size                    : 105 MiB (6%)\r\nDefault                        : Yes\r\nForced                         : No\r\n\r\n \nhttp://extraimago.com/image/aKpY \nhttp://extraimago.com/image/aKpp \nhttp://extraimago.com/image/aKpr \nhttp://extraimago.com/image/aKpG \nhttp://extraimago.com/image/aKpP \nhttp://extraimago.com/image/aKpX","torrent":{"xt":"urn:btih:ecfcb70323c1b1dea12181cc93adde14dfb4c6a6","amp;dn":"Mother%27s+Day+2016++HDCAM+x264+AAC-Exclusive","amp;tr":["udp%3A%2F%2Ftracker.leechers-paradise.org%3A6969","udp%3A%2F%2Fzer0day.ch%3A1337","udp%3A%2F%2Fopen.demonii.com%3A1337","udp%3A%2F%2Ftracker.coppersurfer.tk%3A6969","udp%3A%2F%2Fexodus.desync.com%3A6969"],"infoHash":"ecfcb70323c1b1dea12181cc93adde14dfb4c6a6","infoHashBuffer":{"type":"Buffer","data":[236,252,183,3,35,193,177,222,161,33,129,204,147,173,222,20,223,180,198,166]},"announce":[],"urlList":[]}}